<?xml version="1.0" encoding="iso-8859-1"?>
<!-- Generator: Adobe Illustrator 19.0.0, SVG Export Plug-In . SVG Version: 6.00 Build 0)  -->
<svg version="1.1" id="Capa_1" xmlns="http://www.w3.org/2000/svg" xmlns:xlink="http://www.w3.org/1999/xlink" x="0px" y="0px"
	 viewBox="0 0 477.827 477.827" style="enable-background:new 0 0 477.827 477.827;" xml:space="preserve">
<g>
	<g>
		<path d="M437.832,227.96c22.091-0.003,39.998-17.913,39.995-40.005c-0.001-7.894-2.337-15.611-6.715-22.179L404.52,65.864
			c-9.054-13.586-23.587-22.543-39.792-24.528L44.872,2.168C22.945-0.522,2.988,15.072,0.298,36.999
			C-0.426,42.9,0.174,48.889,2.056,54.528l48.696,146.088c5.447,16.333,20.735,27.347,37.952,27.344h50.728l64,248h242.464
			l-92.264-209.68v-38.32H437.832z M421.376,459.96H215.832l-59.872-232h23.424l8,32h126.24v-32h24v41.68L421.376,459.96z
			 M195.88,227.96h101.752v16H199.88L195.88,227.96z M88.704,211.96c-10.332,0.004-19.508-6.606-22.776-16.408L17.232,49.464
			c-4.193-12.574,2.601-26.167,15.176-30.36c2.435-0.812,4.985-1.228,7.552-1.232c0.989,0.002,1.978,0.063,2.96,0.184l319.864,39.2
			c11.574,1.415,21.955,7.811,28.424,17.512l66.624,99.88c4.978,7.345,5.429,16.857,1.168,24.64
			c-4.119,7.862-12.293,12.755-21.168,12.672H88.704z"/>
	</g>
</g>
<g>
	<g>
		<circle cx="329.632" cy="131.96" r="16"/>
	</g>
</g>
<g>
	<g>
		<circle cx="161.632" cy="123.96" r="16"/>
	</g>
</g>
<g>
	<g>
		<path d="M318.944,275.96H191.256l44.176,168H389.68L318.944,275.96z M212.016,291.96h96.304l57.264,136H247.8L212.016,291.96z"/>
	</g>
</g>
<g>
</g>
<g>
</g>
<g>
</g>
<g>
</g>
<g>
</g>
<g>
</g>
<g>
</g>
<g>
</g>
<g>
</g>
<g>
</g>
<g>
</g>
<g>
</g>
<g>
</g>
<g>
</g>
<g>
</g>
</svg>
