<?xml version="1.0" encoding="iso-8859-1"?>
<!-- Generator: Adobe Illustrator 19.0.0, SVG Export Plug-In . SVG Version: 6.00 Build 0)  -->
<svg version="1.1" id="Capa_1" xmlns="http://www.w3.org/2000/svg" xmlns:xlink="http://www.w3.org/1999/xlink" x="0px" y="0px"
	 viewBox="0 0 480.105 480.105" style="enable-background:new 0 0 480.105 480.105;" xml:space="preserve">
<g>
	<g>
		<rect x="431.999" y="32.113" transform="matrix(0.4767 -0.8791 0.8791 0.4767 195.0019 407.7876)" width="16" height="16"/>
	</g>
</g>
<g>
	<g>
		<path d="M421.693,176.049l-98.144-25.928c-4.272-1.127-8.649,1.423-9.776,5.695c0,0,0,0.001,0,0.001
			c-1.127,4.272,1.423,8.649,5.695,9.776c0,0,0.001,0,0.001,0l98.136,25.928c0.669,0.173,1.357,0.262,2.048,0.264
			c4.418,0.001,8.001-3.58,8.002-7.998C427.655,180.153,425.207,176.975,421.693,176.049z"/>
	</g>
</g>
<g>
	<g>
		<path d="M437.725,147.241l-98.976-25.264c-4.281-1.091-8.637,1.495-9.728,5.776c-1.091,4.281,1.495,8.637,5.776,9.728
			l98.976,25.256c0.645,0.168,1.309,0.251,1.976,0.248c4.418-0.017,7.986-3.613,7.969-8.031
			C443.703,151.32,441.242,148.153,437.725,147.241z"/>
	</g>
</g>
<g>
	<g>
		<rect x="287.029" y="299.305" width="16" height="16"/>
	</g>
</g>
<g>
	<g>
		<path d="M479.667,34.168c-3.224-21.855-23.554-36.958-45.409-33.734s-36.958,23.554-33.734,45.409
			c0.553,3.75,1.636,7.402,3.217,10.846l-7.736,14.168l-7.016-3.816c-3.879-2.11-8.735-0.678-10.848,3.2l-13.104,24.136
			l-11.496-3.072c-4.266-1.153-8.659,1.37-9.812,5.636c-1.153,4.266,1.37,8.659,5.636,9.812l100.384,27.2
			c0.68,0.187,1.383,0.281,2.088,0.28c4.418,0.011,8.009-3.562,8.02-7.98c0.009-3.629-2.426-6.81-5.932-7.748l-9.528-2.576
			l4.056-7.48c2.11-3.879,0.678-8.735-3.2-10.848l-7.032-3.816l7.712-14.208C467.787,76.353,482.891,56.023,479.667,34.168z
			 M428.501,111.601l-16.496-4.48l-31.128-8.432l7.472-13.768l15.528,8.432l19.664,10.672l7.008,3.8L428.501,111.601z
			 M433.885,68.153l-9.744,17.96l-14.064-7.608l9.752-17.976c1.358-2.505,1.282-5.543-0.2-7.976
			c-6.946-11.289-3.425-26.072,7.865-33.017c11.289-6.946,26.072-3.424,33.017,7.865c6.946,11.289,3.425,26.072-7.865,33.017
			c-3.607,2.219-7.736,3.444-11.969,3.551C437.829,64.055,435.242,65.649,433.885,68.153z"/>
	</g>
</g>
<g>
	<g>
		<path d="M472.005,248.105h-48c-4.418,0-8,3.582-8,8v24h-51.6l10.968-20.208c2.11-3.879,0.678-8.735-3.2-10.848l-14.064-7.632
			l15.576-28.712l27.792,7.592c4.264,1.164,8.664-1.348,9.828-5.612c1.164-4.264-1.348-8.664-5.612-9.828l-97.336-26.584
			c-4.282-1.09-8.636,1.498-9.726,5.78c-1.063,4.176,1.373,8.444,5.51,9.652l21.968,6.008l-10.208,18.792l-14.064-7.632
			c-3.878-2.105-8.727-0.673-10.84,3.2l-15.264,28.128c-2.11,3.879-0.678,8.735,3.2,10.848l14.064,7.624l-3.888,7.2
			c-2.693,0.397-5.339,1.067-7.896,2c-5.826,2.155-11.057,5.662-15.264,10.232h-57.944v-24c0-4.418-3.582-8-8-8h-24v-64
			c-0.026-22.08-17.92-39.974-40-40h-96c-22.08,0.026-39.974,17.92-40,40v256c0.026,22.08,17.92,39.974,40,40h96
			c22.08-0.026,39.974-17.92,40-40v-64h24c4.418,0,8-3.582,8-8v-24h71.792c9.774,4.18,20.834,4.18,30.608,0h105.6v24
			c0,4.418,3.582,8,8,8h48c4.418,0,8-3.582,8-8v-112C480.005,251.687,476.423,248.105,472.005,248.105z M32.005,462.633
			c-9.555-3.378-15.958-12.394-16-22.528v-256c0.042-10.134,6.445-19.15,16-22.528V462.633z M64.005,464.105h-16v-304h16V464.105z
			 M96.005,464.105h-16v-304h16V464.105z M128.005,464.105h-16v-304h16V464.105z M160.005,256.105v184
			c-0.042,10.134-6.445,19.15-16,22.528V161.577c9.555,3.378,15.958,12.394,16,22.528V256.105z M192.005,288.105v72h-16v-96h16
			V288.105z M208.005,328.105v-32h48.632c-0.634,2.213-1.071,4.478-1.304,6.768c0,0.288-0.08,0.576-0.112,0.864
			c-0.192,2.268-0.192,4.548,0,6.816c0,0.352,0.048,0.696,0.088,1.048c0.242,2.213,0.67,4.403,1.28,6.544
			c0.096,0.352,0.2,0.704,0.312,1.056c0.656,2.127,1.489,4.195,2.488,6.184c0.16,0.312,0.336,0.616,0.504,0.936
			c0.32,0.592,0.608,1.208,0.96,1.784H208.005z M340.725,206.329l15.328,5.28l-12.048,22.176l-14.064-7.632L340.725,206.329z
			 M301.237,228.777l56.256,30.528l-7.632,14.056l-33.184-18l-9-4.856l-14.072-7.664L301.237,228.777z M315.405,294.881
			c6.901,11.223,3.398,25.916-7.826,32.817c-6.895,4.24-15.47,4.694-22.774,1.207c-0.216-0.104-0.976-0.392-1.2-0.472
			c-11.647-6.322-15.966-20.887-9.648-32.536c0.585-1.033,1.251-2.017,1.992-2.944c2.736-3.653,6.474-6.433,10.76-8
			c2.461-0.893,5.047-1.39,7.664-1.472c2.846-0.084,5.432-1.675,6.792-4.176l5.928-10.936l14.064,7.632l-5.952,10.904
			C313.846,289.41,313.922,292.448,315.405,294.881z M384.005,328.105h-54.8c0.344-0.56,0.672-1.128,0.984-1.712
			c1.115-2.099,2.036-4.294,2.752-6.56c0.12-0.392,0.264-0.8,0.376-1.16c0.626-2.148,1.067-4.345,1.32-6.568
			c0.048-0.44,0.08-0.88,0.12-1.32c0.196-2.278,0.196-4.57,0-6.848c0-0.2-0.064-0.384-0.08-0.584
			c-0.24-2.201-0.66-4.379-1.256-6.512c-0.064-0.232-0.072-0.48-0.136-0.712h50.72V328.105z M416.005,328.105h-16v-32h16V328.105z
			 M464.005,360.105h-32v-96h32V360.105z"/>
	</g>
</g>
<g>
</g>
<g>
</g>
<g>
</g>
<g>
</g>
<g>
</g>
<g>
</g>
<g>
</g>
<g>
</g>
<g>
</g>
<g>
</g>
<g>
</g>
<g>
</g>
<g>
</g>
<g>
</g>
<g>
</g>
</svg>
